<svg xmlns="http://www.w3.org/2000/svg" width="1200" height="675" viewBox="0 0 1200 675">
  <rect width="1200" height="675" fill="#06080f"/>
  <text x="600" y="80" fill="#eef1f8" font-family="Inter,sans-serif" font-size="36" font-weight="700" text-anchor="middle">Aegis Platform Portal</text>
  <text x="600" y="120" fill="#7a8ba8" font-family="Inter,sans-serif" font-size="16" text-anchor="middle">Unified Homepage - Module Navigation &amp; Live Status</text>
  <rect x="100" y="180" width="320" height="180" rx="12" fill="#121826" stroke="#243044"/>
  <rect x="440" y="180" width="320" height="180" rx="12" fill="#121826" stroke="#243044"/>
  <rect x="780" y="180" width="320" height="180" rx="12" fill="#121826" stroke="#243044"/>
  <text x="260" y="230" fill="#6366f1" font-family="Inter,sans-serif" font-size="18" font-weight="600" text-anchor="middle">Exchange</text>
  <text x="600" y="230" fill="#06b6d4" font-family="Inter,sans-serif" font-size="18" font-weight="600" text-anchor="middle">Quant Research</text>
  <text x="940" y="230" fill="#10b981" font-family="Inter,sans-serif" font-size="18" font-weight="600" text-anchor="middle">Execution</text>
  <rect x="100" y="400" width="240" height="140" rx="12" fill="#121826" stroke="#243044"/>
  <rect x="360" y="400" width="240" height="140" rx="12" fill="#121826" stroke="#243044"/>
  <rect x="620" y="400" width="240" height="140" rx="12" fill="#121826" stroke="#243044"/>
  <rect x="880" y="400" width="240" height="140" rx="12" fill="#121826" stroke="#243044"/>
  <text x="220" y="450" fill="#f59e0b" font-family="Inter,sans-serif" font-size="14" font-weight="600" text-anchor="middle">Options</text>
  <text x="480" y="450" fill="#ec4899" font-family="Inter,sans-serif" font-size="14" font-weight="600" text-anchor="middle">Market Making</text>
  <text x="740" y="450" fill="#ef4444" font-family="Inter,sans-serif" font-size="14" font-weight="600" text-anchor="middle">Analytics</text>
  <text x="1000" y="450" fill="#8b5cf6" font-family="Inter,sans-serif" font-size="14" font-weight="600" text-anchor="middle">Portfolio</text>
  <rect x="200" y="580" width="800" height="60" rx="8" fill="#6366f1" opacity="0.15"/>
  <text x="600" y="618" fill="#818cf8" font-family="Inter,sans-serif" font-size="14" text-anchor="middle">142,850 orders/sec  -  4.2 - s latency  -  Sharpe 1.84  -  45 tests passing</text>
</svg>
