<svg xmlns="http://www.w3.org/2000/svg" width="1200" height="675" viewBox="0 0 1200 675">
  <rect width="1200" height="675" fill="#0a0e17"/>
  <rect x="0" y="0" width="220" height="675" fill="#0f1520"/>
  <text x="30" y="40" fill="#6366f1" font-family="Inter,sans-serif" font-size="20" font-weight="700">Aegis Quant</text>
  <text x="30" y="100" fill="#eef1f8" font-family="Inter,sans-serif" font-size="13">Research</text>
  <text x="30" y="130" fill="#6b7a94" font-family="Inter,sans-serif" font-size="13">Backtests</text>
  <text x="30" y="160" fill="#6b7a94" font-family="Inter,sans-serif" font-size="13">Executions</text>
  <text x="30" y="190" fill="#6b7a94" font-family="Inter,sans-serif" font-size="13">Options</text>
  <text x="30" y="220" fill="#6b7a94" font-family="Inter,sans-serif" font-size="13">Market Making</text>
  <text x="260" y="50" fill="#eef1f8" font-family="Inter,sans-serif" font-size="24" font-weight="700">Backtests</text>
  <rect x="260" y="80" width="900" height="300" rx="8" fill="#161e2e" stroke="#243044"/>
  <polyline points="280,350 350,320 420,340 490,280 560,300 630,250 700,270 770,220 840,240 910,200 980,230 1050,180 1120,200" fill="none" stroke="#6366f1" stroke-width="2"/>
  <rect x="260" y="420" width="200" height="80" rx="8" fill="#161e2e" stroke="#243044"/>
  <text x="360" y="455" fill="#6b7a94" font-family="Inter,sans-serif" font-size="11" text-anchor="middle">SHARPE</text>
  <text x="360" y="480" fill="#22c55e" font-family="JetBrains Mono,monospace" font-size="22" font-weight="700" text-anchor="middle">1.333</text>
  <rect x="480" y="420" width="200" height="80" rx="8" fill="#161e2e" stroke="#243044"/>
  <text x="580" y="455" fill="#6b7a94" font-family="Inter,sans-serif" font-size="11" text-anchor="middle">MAX DD</text>
  <text x="580" y="480" fill="#ef4444" font-family="JetBrains Mono,monospace" font-size="22" font-weight="700" text-anchor="middle">-8.2%</text>
  <rect x="700" y="420" width="200" height="80" rx="8" fill="#161e2e" stroke="#243044"/>
  <text x="800" y="455" fill="#6b7a94" font-family="Inter,sans-serif" font-size="11" text-anchor="middle">RETURN</text>
  <text x="800" y="480" fill="#22c55e" font-family="JetBrains Mono,monospace" font-size="22" font-weight="700" text-anchor="middle">+14.5%</text>
</svg>
